<svg xmlns="http://www.w3.org/2000/svg" viewBox="0 0 24 30" fill="none" x="0px" y="0px"><path fill-rule="evenodd" clip-rule="evenodd" d="M5 2C3.34315 2 2 3.34315 2 5C2 6.30622 2.83481 7.41746 4 7.82929V11.8394C4 12.9159 4.57686 13.91 5.51158 14.4441L9.84038 16.9177C9.32004 17.4572 9 18.1912 9 19C9 20.6569 10.3431 22 12 22C13.6569 22 15 20.6569 15 19C15 18.1912 14.68 17.4572 14.1596 16.9177L18.4884 14.4441C19.4231 13.91 20 12.9159 20 11.8394V7.82929C21.1652 7.41746 22 6.30622 22 5C22 3.34315 20.6569 2 19 2C17.3431 2 16 3.34315 16 5C16 6.30622 16.8348 7.41746 18 7.82929V11.8394C18 12.1982 17.8077 12.5296 17.4961 12.7076L12.4961 15.5647C12.1887 15.7404 11.8113 15.7404 11.5039 15.5647L6.50386 12.7076C6.19229 12.5296 6 12.1982 6 11.8394V7.82929C7.16519 7.41746 8 6.30622 8 5C8 3.34315 6.65685 2 5 2ZM4 5C4 4.44772 4.44772 4 5 4C5.55228 4 6 4.44772 6 5C6 5.55228 5.55228 6 5 6C4.44772 6 4 5.55228 4 5ZM11 19C11 18.4477 11.4477 18 12 18C12.5523 18 13 18.4477 13 19C13 19.5523 12.5523 20 12 20C11.4477 20 11 19.5523 11 19ZM19 4C18.4477 4 18 4.44772 18 5C18 5.55228 18.4477 6 19 6C19.5523 6 20 5.55228 20 5C20 4.44772 19.5523 4 19 4Z" fill="black"/><text x="0" y="39" fill="#000000" font-size="5px" font-weight="bold" font-family="'Helvetica Neue', Helvetica, Arial-Unicode, Arial, Sans-serif">Created by HDM</text><text x="0" y="44" fill="#000000" font-size="5px" font-weight="bold" font-family="'Helvetica Neue', Helvetica, Arial-Unicode, Arial, Sans-serif">from the Noun Project</text></svg>