<svg xmlns="http://www.w3.org/2000/svg" xmlns:xlink="http://www.w3.org/1999/xlink" version="1.1" x="0px" y="0px" viewBox="0 0 100 125" style="enable-background:new 0 0 100 100;" xml:space="preserve"><g><path d="M74.9,70.2c0,1.4-1.1,2.5-2.5,2.5h-5.9v5.9c0,1.4-1.1,2.5-2.5,2.5s-2.5-1.1-2.5-2.5v-5.9h-5.9c-1.4,0-2.5-1.1-2.5-2.5   s1.1-2.5,2.5-2.5h5.9v-5.9c0-1.4,1.1-2.5,2.5-2.5s2.5,1.1,2.5,2.5v5.9h5.9C73.8,67.8,74.9,68.9,74.9,70.2z"/><path d="M30,81.8c-0.9,0-1.8-0.3-2.5-0.8c-1.5-1.1-2.1-3-1.6-4.8l6.7-20.5L15.2,43c-1.5-1.1-2.1-3-1.6-4.8c0.6-1.8,2.2-2.9,4.1-2.9   h21.6l6.7-20.5c0.6-1.8,2.2-2.9,4.1-2.9c1.9,0,3.5,1.2,4.1,2.9l6.7,20.5h21.6c1.9,0,3.5,1.2,4.1,2.9c0.6,1.8,0,3.7-1.5,4.8L66.9,56   c-1.1,0.8-2.7,0.6-3.5-0.6c-0.8-1.1-0.6-2.7,0.6-3.5l16.1-11.7H60.2c-1.9,0-3.5-1.2-4.1-2.9L50,18.4l-6.1,18.9   c-0.6,1.8-2.2,2.9-4.1,2.9H19.9L36,51.9c1.5,1.1,2.1,3,1.6,4.8l-6.1,18.9l16.1-11.7c1.1-0.8,2.7-0.6,3.5,0.6   c0.8,1.1,0.6,2.7-0.6,3.5l-17.9,13C31.8,81.5,30.9,81.8,30,81.8z"/></g><text x="0" y="115" fill="#000000" font-size="5px" font-weight="bold" font-family="'Helvetica Neue', Helvetica, Arial-Unicode, Arial, Sans-serif">Created by Shiva</text><text x="0" y="120" fill="#000000" font-size="5px" font-weight="bold" font-family="'Helvetica Neue', Helvetica, Arial-Unicode, Arial, Sans-serif">from the Noun Project</text></svg>